PathFileType	4	(X/Y/Z)	SUBJ89_0_static_RCNL2025.trc
DataRate	CameraRate	NumFrames	NumMarkers	Units	OrigDataRate	OrigDataStartFrame	OrigNumFrames
100	100	5	25	mm	100	67	267
Frame#	Time	R_Shoulder			L_Shoulder			C7			J_Notch			R_Elbow			L_Elbow			R_Wrist			L_Wrist			R_Asis			L_Asis			Sacral			Thoracic			Sternum			R_Thigh_Lateral			R_Knee_Lateral			R_Shank_Lateral			R_Ankle_Lateral			R_Heel			R_Toe			L_Thigh_Lateral			L_Knee_Lateral			L_Shank_Lateral			L_Ankle_Lateral			L_Heel			L_Toe		
		X1	Y1	Z1	X2	Y2	Z2	X3	Y3	Z3	X4	Y4	Z4	X5	Y5	Z5	X6	Y6	Z6	X7	Y7	Z7	X8	Y8	Z8	X9	Y9	Z9	X10	Y10	Z10	X11	Y11	Z11	X12	Y12	Z12	X13	Y13	Z13	X14	Y14	Z14	X15	Y15	Z15	X16	Y16	Z16	X17	Y17	Z17	X18	Y18	Z18	X19	Y19	Z19	X20	Y20	Z20	X21	Y21	Z21	X22	Y22	Z22	X23	Y23	Z23	X24	Y24	Z24	X25	Y25	Z25
67	0.66000000	-230.862381	1448.294922	-41.613495	-254.581375	1451.842163	-430.515381	-295.480438	1515.159668	-241.435287	-164.976196	1401.385010	-236.819580	-251.185959	1177.527222	123.789902	-221.381439	1188.773438	-608.157227	-162.472198	946.701935	233.309235	-114.660305	980.632996	-736.472534	-146.559525	1002.115173	-108.588837	-137.742050	1007.068787	-350.023346	-313.469849	1050.159790	-221.830795	-361.480408	1332.069824	-229.755829	-122.966560	1254.991455	-246.962830	-209.269058	619.268860	-36.791630	-227.607224	501.134583	-89.276047	-281.439178	283.982208	-31.748495	-316.934570	74.916443	-95.863556	-352.016388	64.365807	-141.806152	-157.055038	35.847878	-100.968277	-190.204514	577.682556	-445.715393	-204.507568	492.499664	-373.203491	-263.972443	266.881165	-428.228424	-287.885773	67.530289	-365.948639	-325.111206	72.735336	-317.393463	-131.611069	35.959244	-360.042084
68	0.67000000	-230.733871	1448.338989	-41.611221	-254.465286	1451.910034	-430.538910	-295.407288	1515.155884	-241.447983	-164.929367	1401.469482	-236.811600	-251.224152	1177.596436	123.902336	-221.334717	1188.872070	-608.231018	-162.628784	946.745941	233.564629	-114.608551	980.753571	-736.590881	-146.502136	1002.100769	-108.629944	-137.816910	1007.047058	-349.988739	-313.482880	1050.163818	-221.824448	-361.438690	1332.085083	-229.838257	-122.960320	1255.076050	-246.827682	-209.299683	619.258057	-36.789352	-227.623962	501.141815	-89.234940	-281.496613	284.019318	-31.715685	-317.011505	74.937157	-95.906059	-352.070251	64.417770	-141.794037	-157.017563	35.924381	-100.989853	-190.227615	577.676636	-445.690491	-204.578415	492.501648	-373.140686	-263.966400	266.901306	-428.246124	-287.896301	67.532883	-365.973511	-325.110748	72.731781	-317.392944	-131.663040	35.979431	-360.060059
69	0.68000000	-230.648865	1448.330444	-41.558403	-254.308334	1451.969482	-430.449066	-295.371735	1515.184570	-241.376572	-164.811844	1401.466797	-236.751221	-251.164139	1177.654419	124.090477	-221.224442	1188.968628	-608.248047	-162.793846	946.925446	233.820992	-114.631657	980.847534	-736.621246	-146.543259	1002.113037	-108.600494	-137.811066	1007.128357	-349.941193	-313.526764	1050.208618	-221.792618	-361.403625	1332.145264	-229.719360	-122.954834	1255.146851	-246.793625	-209.356018	619.304443	-36.739494	-227.683334	501.133301	-89.217850	-281.514557	284.020477	-31.655983	-316.969666	74.948341	-95.847153	-352.100647	64.406281	-141.743729	-157.043640	35.849232	-100.994705	-190.329391	577.737732	-445.670410	-204.600403	492.536469	-373.079437	-264.063293	266.918152	-428.147125	-287.910583	67.568787	-365.967041	-325.019684	72.737885	-317.325134	-131.625870	35.976059	-360.017456
70	0.69000000	-230.587646	1448.348145	-41.545322	-254.223648	1452.046631	-430.376862	-295.297272	1515.235840	-241.352371	-164.589447	1401.419189	-236.912201	-251.160400	1177.782471	124.210457	-221.176926	1189.052612	-608.228516	-162.975563	947.096710	234.146286	-114.532215	980.931213	-736.656097	-146.432755	1002.086365	-108.654724	-137.827103	1007.110962	-349.900848	-313.517120	1050.211304	-221.793045	-361.389191	1332.141235	-229.731873	-122.848961	1255.073242	-246.793274	-209.359070	619.288452	-36.746368	-227.676498	501.128632	-89.232750	-281.447113	284.041779	-31.629374	-316.938599	74.905792	-95.869011	-352.126648	64.418839	-141.754944	-157.008362	35.830074	-100.979904	-190.408539	577.708130	-445.627655	-204.739151	492.523743	-373.104095	-264.155579	266.942047	-428.214935	-287.870026	67.537506	-366.025940	-325.040863	72.726921	-317.374664	-131.618896	35.975266	-360.025330
71	0.70000000	-230.545502	1448.364990	-41.491909	-254.073257	1452.055176	-430.386597	-295.202484	1515.198975	-241.390549	-164.639648	1401.478271	-236.770004	-251.059189	1177.936401	124.365166	-221.058197	1189.117188	-608.249023	-163.047066	947.301636	234.489120	-114.481323	981.008881	-736.732422	-146.526138	1002.103149	-108.609612	-137.901550	1007.052124	-349.980896	-313.529236	1050.216797	-221.775146	-361.319916	1332.188843	-229.786346	-122.926598	1255.163940	-246.809555	-209.392075	619.301392	-36.736530	-227.718369	501.166138	-89.204208	-281.280029	283.940491	-31.792246	-316.921478	74.891899	-95.874741	-352.085602	64.410881	-141.790619	-157.039352	35.842697	-100.999428	-190.411484	577.703186	-445.672272	-204.771667	492.521454	-373.155029	-264.143097	266.918060	-428.233032	-287.891754	67.545410	-365.946381	-325.023132	72.684525	-317.355957	-131.640900	35.994053	-360.007965
